<svg width="30" height="30" viewBox="0 0 30 30" fill="none" xmlns="http://www.w3.org/2000/svg">
<path d="M7.00436 9.41662L3.76172 6.17398L5.17593 4.75977L8.41857 8.00241H23.6603C24.2126 8.00241 24.6603 8.45012 24.6603 9.00241C24.6603 9.09973 24.6461 9.19653 24.6182 9.28975L22.2182 17.2898C22.0913 17.7127 21.7019 18.0024 21.2603 18.0024H9.00436V20.0024H20.0044V22.0024H8.00436C7.45207 22.0024 7.00436 21.5547 7.00436 21.0024V9.41662ZM9.00436 10.0024V16.0024H20.5163L22.3163 10.0024H9.00436ZM8.50436 26.0024C7.67593 26.0024 7.00436 25.3308 7.00436 24.5024C7.00436 23.674 7.67593 23.0024 8.50436 23.0024C9.33279 23.0024 10.0044 23.674 10.0044 24.5024C10.0044 25.3308 9.33279 26.0024 8.50436 26.0024ZM20.5044 26.0024C19.6759 26.0024 19.0044 25.3308 19.0044 24.5024C19.0044 23.674 19.6759 23.0024 20.5044 23.0024C21.3328 23.0024 22.0044 23.674 22.0044 24.5024C22.0044 25.3308 21.3328 26.0024 20.5044 26.0024Z" fill="black"/>
</svg>
