<svg width="30" height="30" viewBox="0 0 30 30" fill="none" xmlns="http://www.w3.org/2000/svg">
<path fill-rule="evenodd" clip-rule="evenodd" d="M15 15.75C12.6528 15.75 10.75 17.6528 10.75 20V21C10.75 21.4142 10.4142 21.75 10 21.75C9.58579 21.75 9.25 21.4142 9.25 21V20C9.25 16.8244 11.8244 14.25 15 14.25C18.1756 14.25 20.75 16.8244 20.75 20V21C20.75 21.4142 20.4142 21.75 20 21.75C19.5858 21.75 19.25 21.4142 19.25 21V20C19.25 17.6528 17.3472 15.75 15 15.75Z" fill="black"/>
<path fill-rule="evenodd" clip-rule="evenodd" d="M7 17.75C5.75736 17.75 4.75 18.7574 4.75 20V21C4.75 21.4142 4.41421 21.75 4 21.75C3.58579 21.75 3.25 21.4142 3.25 21V20C3.25 17.9289 4.92893 16.25 7 16.25V17.75Z" fill="black"/>
<path fill-rule="evenodd" clip-rule="evenodd" d="M23 17.75C24.2426 17.75 25.25 18.7574 25.25 20V21C25.25 21.4142 25.5858 21.75 26 21.75C26.4142 21.75 26.75 21.4142 26.75 21V20C26.75 17.9289 25.0711 16.25 23 16.25V17.75Z" fill="black"/>
<path fill-rule="evenodd" clip-rule="evenodd" d="M15 9.75C13.7574 9.75 12.75 10.7574 12.75 12C12.75 13.2426 13.7574 14.25 15 14.25C16.2426 14.25 17.25 13.2426 17.25 12C17.25 10.7574 16.2426 9.75 15 9.75ZM11.25 12C11.25 9.92893 12.9289 8.25 15 8.25C17.0711 8.25 18.75 9.92893 18.75 12C18.75 14.0711 17.0711 15.75 15 15.75C12.9289 15.75 11.25 14.0711 11.25 12Z" fill="black"/>
<path fill-rule="evenodd" clip-rule="evenodd" d="M7 13.75C6.30964 13.75 5.75 14.3096 5.75 15C5.75 15.6904 6.30964 16.25 7 16.25C7.69036 16.25 8.25 15.6904 8.25 15C8.25 14.3096 7.69036 13.75 7 13.75ZM4.25 15C4.25 13.4812 5.48122 12.25 7 12.25C8.51878 12.25 9.75 13.4812 9.75 15C9.75 16.5188 8.51878 17.75 7 17.75C5.48122 17.75 4.25 16.5188 4.25 15Z" fill="black"/>
<path fill-rule="evenodd" clip-rule="evenodd" d="M23 13.75C22.3096 13.75 21.75 14.3096 21.75 15C21.75 15.6904 22.3096 16.25 23 16.25C23.6904 16.25 24.25 15.6904 24.25 15C24.25 14.3096 23.6904 13.75 23 13.75ZM20.25 15C20.25 13.4812 21.4812 12.25 23 12.25C24.5188 12.25 25.75 13.4812 25.75 15C25.75 16.5188 24.5188 17.75 23 17.75C21.4812 17.75 20.25 16.5188 20.25 15Z" fill="black"/>
</svg>
