<svg width="50" height="50" viewBox="0 0 50 50" fill="none" xmlns="http://www.w3.org/2000/svg">
<path fill-rule="evenodd" clip-rule="evenodd" d="M19.375 24.6875C16.0958 24.6875 13.4375 27.3458 13.4375 30.625C13.4375 31.708 13.7266 32.7207 14.2313 33.5931C14.3433 33.7868 14.3824 34.0141 14.3414 34.2341L14.0155 35.9845L15.7659 35.6586C15.9859 35.6176 16.2132 35.6567 16.4069 35.7687C17.2793 36.2734 18.292 36.5625 19.375 36.5625C22.6542 36.5625 25.3125 33.9042 25.3125 30.625C25.3125 27.3458 22.6542 24.6875 19.375 24.6875ZM11.5625 30.625C11.5625 26.3103 15.0603 22.8125 19.375 22.8125C23.6897 22.8125 27.1875 26.3103 27.1875 30.625C27.1875 34.9397 23.6897 38.4375 19.375 38.4375C18.0805 38.4375 16.8573 38.1219 15.7805 37.5631L13.0153 38.0779C12.7115 38.1345 12.3994 38.0377 12.1808 37.8192C11.9623 37.6006 11.8655 37.2885 11.9221 36.9847L12.4369 34.2195C11.8781 33.1427 11.5625 31.9195 11.5625 30.625Z" fill="#4B7EFF"/>
<path fill-rule="evenodd" clip-rule="evenodd" d="M27.5 13.4375C32.5051 13.4375 36.5625 17.4949 36.5625 22.5C36.5625 24.1522 36.1212 25.6986 35.3507 27.0306C35.2386 27.2243 35.1996 27.4516 35.2405 27.6716L35.8282 30.8282L32.6716 30.2405C32.4516 30.1996 32.2243 30.2386 32.0306 30.3507C31.0972 30.8906 30.059 31.2686 28.9539 31.4466C28.4427 31.529 28.0951 32.0102 28.1774 32.5213C28.2598 33.0325 28.741 33.3801 29.2521 33.2978C30.4669 33.102 31.6148 32.7063 32.6606 32.1457L36.8284 32.9217C37.1322 32.9782 37.4444 32.8814 37.6629 32.6629C37.8814 32.4444 37.9782 32.1322 37.9217 31.8284L37.1457 27.6606C37.9702 26.1226 38.4375 24.3646 38.4375 22.5C38.4375 16.4594 33.5406 11.5625 27.5 11.5625C21.993 11.5625 17.438 15.6315 16.6748 20.9273C16.601 21.4398 16.9566 21.9151 17.469 21.989C17.9815 22.0628 18.4568 21.7072 18.5307 21.1948C19.1628 16.8084 22.9385 13.4375 27.5 13.4375Z" fill="#4B7EFF"/>
</svg>
