<svg width="51" height="51" viewBox="0 0 51 51" fill="none" xmlns="http://www.w3.org/2000/svg">
<path fill-rule="evenodd" clip-rule="evenodd" d="M15.0837 33.3125C13.6454 33.3125 12.4795 34.4784 12.4795 35.9167C12.4795 37.3549 13.6454 38.5208 15.0837 38.5208C16.5219 38.5208 17.6878 37.3549 17.6878 35.9167C17.6878 34.4784 16.5219 33.3125 15.0837 33.3125ZM9.35449 35.9167C9.35449 32.7525 11.9195 30.1875 15.0837 30.1875C18.2478 30.1875 20.8128 32.7525 20.8128 35.9167C20.8128 39.0808 18.2478 41.6458 15.0837 41.6458C11.9195 41.6458 9.35449 39.0808 9.35449 35.9167Z" fill="white"/>
<path fill-rule="evenodd" clip-rule="evenodd" d="M35.9167 33.3125C34.4784 33.3125 33.3125 34.4784 33.3125 35.9167C33.3125 37.3549 34.4784 38.5208 35.9167 38.5208C37.3549 38.5208 38.5208 37.3549 38.5208 35.9167C38.5208 34.4784 37.3549 33.3125 35.9167 33.3125ZM30.1875 35.9167C30.1875 32.7525 32.7525 30.1875 35.9167 30.1875C39.0808 30.1875 41.6458 32.7525 41.6458 35.9167C41.6458 39.0808 39.0808 41.6458 35.9167 41.6458C32.7525 41.6458 30.1875 39.0808 30.1875 35.9167Z" fill="white"/>
<path fill-rule="evenodd" clip-rule="evenodd" d="M6.22949 14.5625V34.3542H10.1878C11.0508 34.3542 11.7503 35.0537 11.7503 35.9167C11.7503 36.7796 11.0508 37.4792 10.1878 37.4792H5.91699C4.36369 37.4792 3.10449 36.22 3.10449 34.6667V14.25C3.10449 12.6967 4.36369 11.4375 5.91699 11.4375H28.417C29.9703 11.4375 31.2295 12.6967 31.2295 14.25V35.9167C31.2295 36.7796 30.5299 37.4792 29.667 37.4792C28.804 37.4792 28.1045 36.7796 28.1045 35.9167V14.5625H6.22949Z" fill="white"/>
<path fill-rule="evenodd" clip-rule="evenodd" d="M17.791 35.9167C17.791 35.0537 18.4906 34.3542 19.3535 34.3542H29.666C30.529 34.3542 31.2285 35.0537 31.2285 35.9167C31.2285 36.7796 30.529 37.4792 29.666 37.4792H19.3535C18.4906 37.4792 17.791 36.7796 17.791 35.9167Z" fill="white"/>
<path fill-rule="evenodd" clip-rule="evenodd" d="M28.1045 19.25C28.1045 18.3871 28.804 17.6875 29.667 17.6875H41.3546C42.4661 17.6875 43.4733 18.3421 43.9247 19.3577L47.6538 27.748C47.8136 28.1076 47.8962 28.4967 47.8962 28.8903V34.6667C47.8962 36.22 46.637 37.4792 45.0837 37.4792H41.1253C40.2624 37.4792 39.5628 36.7796 39.5628 35.9167C39.5628 35.0537 40.2624 34.3542 41.1253 34.3542H44.7712V28.9566L41.1516 20.8125H29.667C28.804 20.8125 28.1045 20.1129 28.1045 19.25Z" fill="white"/>
<path fill-rule="evenodd" clip-rule="evenodd" d="M28.1045 35.9167C28.1045 35.0537 28.804 34.3542 29.667 34.3542H31.7503C32.6133 34.3542 33.3128 35.0537 33.3128 35.9167C33.3128 36.7796 32.6133 37.4792 31.7503 37.4792H29.667C28.804 37.4792 28.1045 36.7796 28.1045 35.9167Z" fill="white"/>
</svg>
