<svg width="30" height="30" viewBox="0 0 30 30" fill="none" xmlns="http://www.w3.org/2000/svg">
<path d="M20 16C22.2091 16 24 17.7909 24 20C24 22.2091 22.2091 24 20 24C17.7909 24 16 22.2091 16 20H14C14 22.2091 12.2091 24 10 24C7.79086 24 6 22.2091 6 20C6 17.7909 7.79086 16 10 16C11.4805 16 12.7732 16.8043 13.4648 17.9999H16.5352C17.2268 16.8043 18.5195 16 20 16ZM10 18C8.89543 18 8 18.8954 8 20C8 21.1046 8.89543 22 10 22C11.1046 22 12 21.1046 12 20C12 18.8954 11.1046 18 10 18ZM20 18C18.8954 18 18 18.8954 18 20C18 21.1046 18.8954 22 20 22C21.1046 22 22 21.1046 22 20C22 18.8954 21.1046 18 20 18ZM19 6C21.2091 6 23 7.79086 23 10V13H25V15H5V13H7V10C7 7.79086 8.79086 6 11 6H19ZM19 8H11C9.94564 8 9 8.95 9 10V13H21V10C21 8.94564 20.05 8 19 8Z" fill="black"/>
</svg>
