<svg width="50" height="50" viewBox="0 0 50 50" fill="none" xmlns="http://www.w3.org/2000/svg">
<path fill-rule="evenodd" clip-rule="evenodd" d="M21.9226 14.5189C23.8141 13.3725 26.1859 13.3725 28.0774 14.5189L34.3274 18.3068C36.103 19.3829 37.1875 21.3083 37.1875 23.3845V31.25C37.1875 34.5292 34.5292 37.1875 31.25 37.1875H18.75C15.4708 37.1875 12.8125 34.5292 12.8125 31.25V23.3845C12.8125 21.3083 13.897 19.3829 15.6726 18.3068L21.9226 14.5189ZM27.1056 16.1224C25.8114 15.338 24.1886 15.338 22.8944 16.1224L16.6444 19.9103C15.4295 20.6465 14.6875 21.9639 14.6875 23.3845V31.25C14.6875 33.4937 16.5063 35.3125 18.75 35.3125H20.3125V31.25C20.3125 28.6612 22.4112 26.5625 25 26.5625C27.5888 26.5625 29.6875 28.6612 29.6875 31.25V35.3125H31.25C33.4937 35.3125 35.3125 33.4937 35.3125 31.25V23.3845C35.3125 21.9639 34.5705 20.6465 33.3556 19.9103L27.1056 16.1224ZM27.8125 35.3125V31.25C27.8125 29.6967 26.5533 28.4375 25 28.4375C23.4467 28.4375 22.1875 29.6967 22.1875 31.25V35.3125H27.8125Z" fill="#4B7EFF"/>
</svg>
