<svg width="50" height="50" viewBox="0 0 50 50" fill="none" xmlns="http://www.w3.org/2000/svg">
<path fill-rule="evenodd" clip-rule="evenodd" d="M25 25.9375C22.066 25.9375 19.6875 28.316 19.6875 31.25V32.5C19.6875 33.0178 19.2678 33.4375 18.75 33.4375C18.2322 33.4375 17.8125 33.0178 17.8125 32.5V31.25C17.8125 27.2805 21.0305 24.0625 25 24.0625C28.9695 24.0625 32.1875 27.2805 32.1875 31.25V32.5C32.1875 33.0178 31.7678 33.4375 31.25 33.4375C30.7322 33.4375 30.3125 33.0178 30.3125 32.5V31.25C30.3125 28.316 27.934 25.9375 25 25.9375Z" fill="#4B7EFF"/>
<path fill-rule="evenodd" clip-rule="evenodd" d="M25 18.4375C23.4467 18.4375 22.1875 19.6967 22.1875 21.25C22.1875 22.8033 23.4467 24.0625 25 24.0625C26.5533 24.0625 27.8125 22.8033 27.8125 21.25C27.8125 19.6967 26.5533 18.4375 25 18.4375ZM20.3125 21.25C20.3125 18.6612 22.4112 16.5625 25 16.5625C27.5888 16.5625 29.6875 18.6612 29.6875 21.25C29.6875 23.8388 27.5888 25.9375 25 25.9375C22.4112 25.9375 20.3125 23.8388 20.3125 21.25Z" fill="#4B7EFF"/>
<path fill-rule="evenodd" clip-rule="evenodd" d="M25 13.4375C18.6142 13.4375 13.4375 18.6142 13.4375 25C13.4375 31.3858 18.6142 36.5625 25 36.5625C31.3858 36.5625 36.5625 31.3858 36.5625 25C36.5625 18.6142 31.3858 13.4375 25 13.4375ZM11.5625 25C11.5625 17.5787 17.5787 11.5625 25 11.5625C32.4213 11.5625 38.4375 17.5787 38.4375 25C38.4375 32.4213 32.4213 38.4375 25 38.4375C17.5787 38.4375 11.5625 32.4213 11.5625 25Z" fill="#4B7EFF"/>
</svg>
