<svg width="50" height="50" viewBox="0 0 50 50" fill="none" xmlns="http://www.w3.org/2000/svg">
<path fill-rule="evenodd" clip-rule="evenodd" d="M24.5304 14.1887C24.821 14.0204 25.1793 14.0204 25.4699 14.1887L37.3449 21.0637C37.793 21.3231 37.9459 21.8966 37.6865 22.3447C37.4271 22.7928 36.8535 22.9458 36.4054 22.6863L25.0002 16.0833L13.5949 22.6863C13.1468 22.9458 12.5732 22.7928 12.3138 22.3447C12.0544 21.8966 12.2073 21.3231 12.6554 21.0637L24.5304 14.1887Z" fill="#4B7EFF"/>
<path fill-rule="evenodd" clip-rule="evenodd" d="M25 29.6875C22.066 29.6875 19.6875 32.066 19.6875 35V36.25H17.8125V35C17.8125 31.0305 21.0305 27.8125 25 27.8125C28.9695 27.8125 32.1875 31.0305 32.1875 35V36.25H30.3125V35C30.3125 32.066 27.934 29.6875 25 29.6875Z" fill="#4B7EFF"/>
<path fill-rule="evenodd" clip-rule="evenodd" d="M25 22.1875C23.4467 22.1875 22.1875 23.4467 22.1875 25C22.1875 26.5533 23.4467 27.8125 25 27.8125C26.5533 27.8125 27.8125 26.5533 27.8125 25C27.8125 23.4467 26.5533 22.1875 25 22.1875ZM20.3125 25C20.3125 22.4112 22.4112 20.3125 25 20.3125C27.5888 20.3125 29.6875 22.4112 29.6875 25C29.6875 27.5888 27.5888 29.6875 25 29.6875C22.4112 29.6875 20.3125 27.5888 20.3125 25Z" fill="#4B7EFF"/>
</svg>
