<svg width="51" height="51" viewBox="0 0 51 51" fill="none" xmlns="http://www.w3.org/2000/svg">
<path fill-rule="evenodd" clip-rule="evenodd" d="M24.7171 7.48108C25.2013 7.20072 25.7985 7.20072 26.2828 7.48108L46.0745 18.9394C46.8213 19.3718 47.0762 20.3277 46.6438 21.0745C46.2115 21.8213 45.2556 22.0762 44.5087 21.6439L25.4999 10.6388L6.49114 21.6439C5.74432 22.0762 4.78841 21.8213 4.35604 21.0745C3.92367 20.3277 4.17858 19.3718 4.9254 18.9394L24.7171 7.48108Z" fill="white"/>
<path fill-rule="evenodd" clip-rule="evenodd" d="M25.4997 33.3125C20.6097 33.3125 16.6455 37.2766 16.6455 42.1667V44.25H13.5205V42.1667C13.5205 35.5508 18.8838 30.1875 25.4997 30.1875C32.1156 30.1875 37.4788 35.5508 37.4788 42.1667V44.25H34.3538V42.1667C34.3538 37.2766 30.3897 33.3125 25.4997 33.3125Z" fill="white"/>
<path fill-rule="evenodd" clip-rule="evenodd" d="M25.5 20.8125C22.9112 20.8125 20.8125 22.9112 20.8125 25.5C20.8125 28.0888 22.9112 30.1875 25.5 30.1875C28.0888 30.1875 30.1875 28.0888 30.1875 25.5C30.1875 22.9112 28.0888 20.8125 25.5 20.8125ZM17.6875 25.5C17.6875 21.1853 21.1853 17.6875 25.5 17.6875C29.8147 17.6875 33.3125 21.1853 33.3125 25.5C33.3125 29.8147 29.8147 33.3125 25.5 33.3125C21.1853 33.3125 17.6875 29.8147 17.6875 25.5Z" fill="white"/>
</svg>
