<svg width="51" height="51" viewBox="0 0 51 51" fill="none" xmlns="http://www.w3.org/2000/svg">
<path d="M41.125 46.3333C42.8509 46.3333 44.25 44.9342 44.25 43.2083C44.25 41.4824 42.8509 40.0833 41.125 40.0833C39.3991 40.0833 38 41.4824 38 43.2083C38 44.9342 39.3991 46.3333 41.125 46.3333Z" fill="#4B7EFF"/>
<path fill-rule="evenodd" clip-rule="evenodd" d="M41.125 41.6458C40.2621 41.6458 39.5625 42.3454 39.5625 43.2083C39.5625 44.0713 40.2621 44.7708 41.125 44.7708C41.9879 44.7708 42.6875 44.0713 42.6875 43.2083C42.6875 42.3454 41.9879 41.6458 41.125 41.6458ZM36.4375 43.2083C36.4375 40.6195 38.5362 38.5208 41.125 38.5208C43.7138 38.5208 45.8125 40.6195 45.8125 43.2083C45.8125 45.7971 43.7138 47.8958 41.125 47.8958C38.5362 47.8958 36.4375 45.7971 36.4375 43.2083Z" fill="#4B7EFF"/>
<path d="M20.292 46.3333C22.0179 46.3333 23.417 44.9342 23.417 43.2083C23.417 41.4824 22.0179 40.0833 20.292 40.0833C18.5661 40.0833 17.167 41.4824 17.167 43.2083C17.167 44.9342 18.5661 46.3333 20.292 46.3333Z" fill="#4B7EFF"/>
<path fill-rule="evenodd" clip-rule="evenodd" d="M20.292 41.6458C19.429 41.6458 18.7295 42.3454 18.7295 43.2083C18.7295 44.0713 19.429 44.7708 20.292 44.7708C21.1549 44.7708 21.8545 44.0713 21.8545 43.2083C21.8545 42.3454 21.1549 41.6458 20.292 41.6458ZM15.6045 43.2083C15.6045 40.6195 17.7032 38.5208 20.292 38.5208C22.8808 38.5208 24.9795 40.6195 24.9795 43.2083C24.9795 45.7971 22.8808 47.8958 20.292 47.8958C17.7032 47.8958 15.6045 45.7971 15.6045 43.2083Z" fill="#4B7EFF"/>
<path fill-rule="evenodd" clip-rule="evenodd" d="M3.10449 4.66669C3.10449 3.80374 3.80405 3.10419 4.66699 3.10419C8.7678 3.10419 11.0275 5.37825 11.9821 7.27085H46.3337C46.797 7.27085 47.2364 7.47647 47.5333 7.83219C47.8301 8.1879 47.9538 8.65702 47.871 9.11286L43.7043 32.0295C43.5692 32.7725 42.9221 33.3125 42.167 33.3125H15.0837C14.3285 33.3125 13.6814 32.7725 13.5464 32.0295L9.39023 9.17083C9.15306 8.30996 7.92816 6.22919 4.66699 6.22919C3.80405 6.22919 3.10449 5.52963 3.10449 4.66669ZM12.7892 10.3959L16.3877 30.1875H40.863L44.4615 10.3959H12.7892Z" fill="#4B7EFF"/>
<path fill-rule="evenodd" clip-rule="evenodd" d="M8.10112 34.1274C7.56464 34.5331 7.27051 35.097 7.27051 35.9167C7.27051 36.7364 7.56464 37.3002 8.10112 37.706C8.69387 38.1543 9.73909 38.5208 11.3971 38.5208H41.1247C41.9876 38.5208 42.6872 39.2204 42.6872 40.0833C42.6872 40.9463 41.9876 41.6458 41.1247 41.6458H11.3971C9.33783 41.6458 7.5385 41.1986 6.21602 40.1983C4.83728 39.1555 4.14551 37.636 4.14551 35.9167C4.14551 34.1973 4.83728 32.6778 6.21602 31.635C7.5385 30.6347 9.33783 30.1875 11.3971 30.1875H42.1663C43.0293 30.1875 43.7288 30.8871 43.7288 31.75C43.7288 32.6129 43.0293 33.3125 42.1663 33.3125H11.3971C9.73909 33.3125 8.69387 33.6791 8.10112 34.1274Z" fill="#4B7EFF"/>
</svg>
