<svg width="51" height="51" viewBox="0 0 51 51" fill="none" xmlns="http://www.w3.org/2000/svg">
<path fill-rule="evenodd" clip-rule="evenodd" d="M12.9997 8.3125C11.5614 8.3125 10.3955 9.47843 10.3955 10.9167V40.0833C10.3955 40.9463 9.69595 41.6458 8.83301 41.6458C7.97006 41.6458 7.27051 40.9463 7.27051 40.0833V10.9167C7.27051 7.75254 9.83554 5.1875 12.9997 5.1875H40.9163C42.4696 5.1875 43.7288 6.4467 43.7288 8V35.3214C43.7288 36.1844 43.0293 36.8839 42.1663 36.8839C41.3034 36.8839 40.6038 36.1844 40.6038 35.3214V8.3125H12.9997Z" fill="#4B7EFF"/>
<path fill-rule="evenodd" clip-rule="evenodd" d="M17.167 5.1875C18.0299 5.1875 18.7295 5.88706 18.7295 6.75V20.5616L21.5331 18.7673C22.0465 18.4387 22.7042 18.4387 23.2176 18.7673L26.0212 20.5616V6.75C26.0212 5.88706 26.7207 5.1875 27.5837 5.1875C28.4466 5.1875 29.1462 5.88706 29.1462 6.75V23.4167C29.1462 23.9877 28.8347 24.5132 28.3338 24.7873C27.8329 25.0615 27.2223 25.0405 26.7414 24.7327L22.3753 21.9384L18.0093 24.7327C17.5283 25.0405 16.9178 25.0615 16.4169 24.7873C15.916 24.5132 15.6045 23.9877 15.6045 23.4167V6.75C15.6045 5.88706 16.304 5.1875 17.167 5.1875Z" fill="#4B7EFF"/>
<path fill-rule="evenodd" clip-rule="evenodd" d="M11.4375 35.9167C11.4375 35.0537 12.1371 34.3542 13 34.3542L42.1667 34.3542C43.0296 34.3542 43.7292 35.0537 43.7292 35.9167C43.7292 36.7796 43.0296 37.4792 42.1667 37.4792L13 37.4792C12.1371 37.4792 11.4375 36.7796 11.4375 35.9167Z" fill="#4B7EFF"/>
<path fill-rule="evenodd" clip-rule="evenodd" d="M11.4375 44.25C11.4375 43.3871 12.1371 42.6875 13 42.6875L42.1667 42.6875C43.0296 42.6875 43.7292 43.3871 43.7292 44.25C43.7292 45.1129 43.0296 45.8125 42.1667 45.8125L13 45.8125C12.1371 45.8125 11.4375 45.1129 11.4375 44.25Z" fill="#4B7EFF"/>
<path fill-rule="evenodd" clip-rule="evenodd" d="M14.5625 35.9167C14.5625 35.0537 13.8629 34.3542 13 34.3542C9.83587 34.3542 7.27083 36.9192 7.27083 40.0834C7.27083 43.2475 9.83587 45.8125 13 45.8125C13.8629 45.8125 14.5625 45.113 14.5625 44.25C14.5625 43.3871 13.8629 42.6875 13 42.6875C11.5618 42.6875 10.3958 41.5216 10.3958 40.0834C10.3958 38.6451 11.5618 37.4792 13 37.4792C13.8629 37.4792 14.5625 36.7796 14.5625 35.9167Z" fill="#4B7EFF"/>
</svg>
