<svg width="50" height="50" viewBox="0 0 50 50" fill="none" xmlns="http://www.w3.org/2000/svg">
<path fill-rule="evenodd" clip-rule="evenodd" d="M17.5 14.6875C16.6371 14.6875 15.9375 15.3871 15.9375 16.25V33.75C15.9375 34.2678 15.5178 34.6875 15 34.6875C14.4822 34.6875 14.0625 34.2678 14.0625 33.75V16.25C14.0625 14.3515 15.6015 12.8125 17.5 12.8125H34.25C35.182 12.8125 35.9375 13.568 35.9375 14.5V30.8929C35.9375 31.4106 35.5178 31.8304 35 31.8304C34.4822 31.8304 34.0625 31.4106 34.0625 30.8929V14.6875H17.5Z" fill="#4B7EFF"/>
<path fill-rule="evenodd" clip-rule="evenodd" d="M20 12.8125C20.5178 12.8125 20.9375 13.2322 20.9375 13.75V22.0369L22.6196 20.9604C22.9277 20.7632 23.3223 20.7632 23.6304 20.9604L25.3125 22.0369V13.75C25.3125 13.2322 25.7322 12.8125 26.25 12.8125C26.7678 12.8125 27.1875 13.2322 27.1875 13.75V23.75C27.1875 24.0926 27.0006 24.4079 26.7001 24.5724C26.3995 24.7369 26.0332 24.7243 25.7446 24.5396L23.125 22.8631L20.5054 24.5396C20.2168 24.7243 19.8505 24.7369 19.5499 24.5724C19.2494 24.4079 19.0625 24.0926 19.0625 23.75V13.75C19.0625 13.2322 19.4822 12.8125 20 12.8125Z" fill="#4B7EFF"/>
<path fill-rule="evenodd" clip-rule="evenodd" d="M16.5625 31.25C16.5625 30.7322 16.9822 30.3125 17.5 30.3125L35 30.3125C35.5178 30.3125 35.9375 30.7322 35.9375 31.25C35.9375 31.7678 35.5178 32.1875 35 32.1875L17.5 32.1875C16.9822 32.1875 16.5625 31.7678 16.5625 31.25Z" fill="#4B7EFF"/>
<path fill-rule="evenodd" clip-rule="evenodd" d="M16.5625 36.25C16.5625 35.7322 16.9822 35.3125 17.5 35.3125L35 35.3125C35.5178 35.3125 35.9375 35.7322 35.9375 36.25C35.9375 36.7678 35.5178 37.1875 35 37.1875L17.5 37.1875C16.9822 37.1875 16.5625 36.7678 16.5625 36.25Z" fill="#4B7EFF"/>
<path fill-rule="evenodd" clip-rule="evenodd" d="M18.4375 31.25C18.4375 30.7322 18.0178 30.3125 17.5 30.3125C15.6015 30.3125 14.0625 31.8515 14.0625 33.75C14.0625 35.6485 15.6015 37.1875 17.5 37.1875C18.0178 37.1875 18.4375 36.7678 18.4375 36.25C18.4375 35.7322 18.0178 35.3125 17.5 35.3125C16.6371 35.3125 15.9375 34.6129 15.9375 33.75C15.9375 32.8871 16.6371 32.1875 17.5 32.1875C18.0178 32.1875 18.4375 31.7678 18.4375 31.25Z" fill="#4B7EFF"/>
</svg>
