<svg width="50" height="50" viewBox="0 0 50 50" fill="none" xmlns="http://www.w3.org/2000/svg">
<path fill-rule="evenodd" clip-rule="evenodd" d="M16.25 15.3125C15.7322 15.3125 15.3125 15.7322 15.3125 16.25V18.75C15.3125 19.2678 15.7322 19.6875 16.25 19.6875C16.7678 19.6875 17.1875 19.2678 17.1875 18.75V17.1875L32.8125 17.1875V18.75C32.8125 19.2678 33.2322 19.6875 33.75 19.6875C34.2678 19.6875 34.6875 19.2678 34.6875 18.75V16.25C34.6875 15.7322 34.2678 15.3125 33.75 15.3125L16.25 15.3125Z" fill="#4B7EFF"/>
<path fill-rule="evenodd" clip-rule="evenodd" d="M21.5625 33.75C21.5625 34.2678 21.9822 34.6875 22.5 34.6875H27.5C28.0178 34.6875 28.4375 34.2678 28.4375 33.75C28.4375 33.2322 28.0178 32.8125 27.5 32.8125H25.9375V16.25C25.9375 15.7322 25.5178 15.3125 25 15.3125C24.4822 15.3125 24.0625 15.7322 24.0625 16.25L24.0625 32.8125H22.5C21.9822 32.8125 21.5625 33.2322 21.5625 33.75Z" fill="#4B7EFF"/>
</svg>
