<svg width="50" height="45" viewBox="0 0 50 45" fill="none" xmlns="http://www.w3.org/2000/svg">
<path d="M35.8415 0.26828C43.1762 0.26828 49.122 6.30487 49.122 14.7561C49.122 31.6585 31.0123 41.3171 24.9757 44.939C18.9391 41.3171 0.829346 31.6585 0.829346 14.7561C0.829346 6.30487 6.86593 0.26828 14.1098 0.26828C18.601 0.26828 22.5611 2.68291 24.9757 5.09755C27.3903 2.68291 31.3503 0.26828 35.8415 0.26828ZM27.2307 37.9457C29.3595 36.6049 31.2779 35.2696 33.0765 33.8387C40.2693 28.1163 44.2928 21.8636 44.2928 14.7561C44.2928 9.05938 40.5815 5.09755 35.8415 5.09755C33.2436 5.09755 30.4311 6.47174 28.3905 8.51235L24.9757 11.9272L21.5609 8.51235C19.5203 6.47174 16.7077 5.09755 14.1098 5.09755C9.42317 5.09755 5.65861 9.09739 5.65861 14.7561C5.65861 21.8636 9.68205 28.1163 16.8749 33.8387C18.6735 35.2696 20.5919 36.6049 22.7207 37.9457C23.4414 38.3999 24.1574 38.837 24.9757 39.3255C25.794 38.837 26.5099 38.3999 27.2307 37.9457Z" fill="black"/>
</svg>
