<svg width="30" height="30" viewBox="0 0 30 30" fill="none" xmlns="http://www.w3.org/2000/svg">
<path fill-rule="evenodd" clip-rule="evenodd" d="M6.25 5.3125C5.73223 5.3125 5.3125 5.73223 5.3125 6.25V8.75C5.3125 9.26777 5.73223 9.6875 6.25 9.6875C6.76777 9.6875 7.1875 9.26777 7.1875 8.75V7.1875L22.8125 7.1875V8.75C22.8125 9.26777 23.2322 9.6875 23.75 9.6875C24.2678 9.6875 24.6875 9.26777 24.6875 8.75V6.25C24.6875 5.73223 24.2678 5.3125 23.75 5.3125L6.25 5.3125Z" fill="black"/>
<path fill-rule="evenodd" clip-rule="evenodd" d="M11.5625 23.75C11.5625 24.2678 11.9822 24.6875 12.5 24.6875H17.5C18.0178 24.6875 18.4375 24.2678 18.4375 23.75C18.4375 23.2322 18.0178 22.8125 17.5 22.8125H15.9375L15.9375 6.25C15.9375 5.73223 15.5178 5.3125 15 5.3125C14.4822 5.3125 14.0625 5.73223 14.0625 6.25L14.0625 22.8125H12.5C11.9822 22.8125 11.5625 23.2322 11.5625 23.75Z" fill="black"/>
</svg>
