<svg width="30" height="30" viewBox="0 0 30 30" fill="none" xmlns="http://www.w3.org/2000/svg">
<path fill-rule="evenodd" clip-rule="evenodd" d="M15 15.9375C12.066 15.9375 9.6875 18.316 9.6875 21.25V22.5C9.6875 23.0178 9.26777 23.4375 8.75 23.4375C8.23223 23.4375 7.8125 23.0178 7.8125 22.5V21.25C7.8125 17.2805 11.0305 14.0625 15 14.0625C18.9695 14.0625 22.1875 17.2805 22.1875 21.25V22.5C22.1875 23.0178 21.7678 23.4375 21.25 23.4375C20.7322 23.4375 20.3125 23.0178 20.3125 22.5V21.25C20.3125 18.316 17.934 15.9375 15 15.9375Z" fill="black"/>
<path fill-rule="evenodd" clip-rule="evenodd" d="M15 8.4375C13.4467 8.4375 12.1875 9.6967 12.1875 11.25C12.1875 12.8033 13.4467 14.0625 15 14.0625C16.5533 14.0625 17.8125 12.8033 17.8125 11.25C17.8125 9.6967 16.5533 8.4375 15 8.4375ZM10.3125 11.25C10.3125 8.66117 12.4112 6.5625 15 6.5625C17.5888 6.5625 19.6875 8.66117 19.6875 11.25C19.6875 13.8388 17.5888 15.9375 15 15.9375C12.4112 15.9375 10.3125 13.8388 10.3125 11.25Z" fill="black"/>
<path fill-rule="evenodd" clip-rule="evenodd" d="M15 3.4375C8.61421 3.4375 3.4375 8.61421 3.4375 15C3.4375 21.3858 8.61421 26.5625 15 26.5625C21.3858 26.5625 26.5625 21.3858 26.5625 15C26.5625 8.61421 21.3858 3.4375 15 3.4375ZM1.5625 15C1.5625 7.57867 7.57867 1.5625 15 1.5625C22.4213 1.5625 28.4375 7.57867 28.4375 15C28.4375 22.4213 22.4213 28.4375 15 28.4375C7.57867 28.4375 1.5625 22.4213 1.5625 15Z" fill="black"/>
</svg>
