<svg width="25" height="26" viewBox="0 0 25 26" fill="none" xmlns="http://www.w3.org/2000/svg">
<path d="M9.37492 1.23413V3.31746H15.6249V1.23413H17.7083V3.31746H21.8749C22.4502 3.31746 22.9166 3.78384 22.9166 4.35913V21.0258C22.9166 21.6011 22.4502 22.0675 21.8749 22.0675H3.12492C2.54963 22.0675 2.08325 21.6011 2.08325 21.0258V4.35913C2.08325 3.78384 2.54963 3.31746 3.12492 3.31746H7.29159V1.23413H9.37492ZM20.8333 10.6091H4.16659V19.9841H20.8333V10.6091ZM15.6619 11.7925L17.135 13.2657L11.9791 18.4216L8.29624 14.7388L9.76938 13.2657L11.9791 15.4754L15.6619 11.7925ZM7.29159 5.4008H4.16659V8.5258H20.8333V5.4008H17.7083V6.44246H15.6249V5.4008H9.37492V6.44246H7.29159V5.4008Z" fill="black"/>
</svg>
