<svg width="15" height="15" viewBox="0 0 15 15" fill="none" xmlns="http://www.w3.org/2000/svg">
<path fill-rule="evenodd" clip-rule="evenodd" d="M5.41824 1.47656C5.55616 1.56203 5.64007 1.71275 5.64007 1.875C5.64007 4.46201 6.28143 6.30966 7.48588 7.51412C8.69034 8.71857 10.538 9.35993 13.125 9.35993C13.2873 9.35993 13.438 9.44384 13.5234 9.58176C13.6089 9.71968 13.617 9.89199 13.5448 10.0373C12.4977 12.1442 10.3228 13.5938 7.80838 13.5938C4.27258 13.5938 1.40625 10.7274 1.40625 7.19162C1.40625 4.67723 2.85581 2.50227 4.96271 1.45523C5.10801 1.38302 5.28032 1.39109 5.41824 1.47656ZM4.72322 2.68047C3.28576 3.66546 2.34375 5.31886 2.34375 7.19162C2.34375 10.2097 4.79035 12.6562 7.80838 12.6562C9.68114 12.6562 11.3345 11.7142 12.3195 10.2768C9.97394 10.1534 8.12101 9.47507 6.82297 8.17703C5.52493 6.87899 4.84657 5.02606 4.72322 2.68047Z" fill="black"/>
</svg>
