<svg width="15" height="15" viewBox="0 0 15 15" fill="none" xmlns="http://www.w3.org/2000/svg">
<g clip-path="url(#clip0_914_2066)">
<path fill-rule="evenodd" clip-rule="evenodd" d="M7.5 4.21875C5.68782 4.21875 4.21875 5.68782 4.21875 7.5C4.21875 9.31218 5.68782 10.7812 7.5 10.7812C9.31218 10.7812 10.7812 9.31218 10.7812 7.5C10.7812 5.68782 9.31218 4.21875 7.5 4.21875ZM3.28125 7.5C3.28125 5.17005 5.17005 3.28125 7.5 3.28125C9.82995 3.28125 11.7188 5.17005 11.7188 7.5C11.7188 9.82995 9.82995 11.7188 7.5 11.7188C5.17005 11.7188 3.28125 9.82995 3.28125 7.5Z" fill="black"/>
<path fill-rule="evenodd" clip-rule="evenodd" d="M13.2812 7.5C13.2812 7.24112 13.4911 7.03125 13.75 7.03125L14.375 7.03125C14.6339 7.03125 14.8437 7.24112 14.8437 7.5C14.8437 7.75888 14.6339 7.96875 14.375 7.96875L13.75 7.96875C13.4911 7.96875 13.2812 7.75888 13.2812 7.5Z" fill="black"/>
<path fill-rule="evenodd" clip-rule="evenodd" d="M7.5 1.71875C7.24112 1.71875 7.03125 1.50888 7.03125 1.25V0.625C7.03125 0.366117 7.24112 0.15625 7.5 0.15625C7.75888 0.15625 7.96875 0.366117 7.96875 0.625V1.25C7.96875 1.50888 7.75888 1.71875 7.5 1.71875Z" fill="black"/>
<path fill-rule="evenodd" clip-rule="evenodd" d="M7.5 14.8438C7.24112 14.8438 7.03125 14.6339 7.03125 14.375V13.75C7.03125 13.4911 7.24112 13.2812 7.5 13.2812C7.75888 13.2812 7.96875 13.4911 7.96875 13.75V14.375C7.96875 14.6339 7.75888 14.8438 7.5 14.8438Z" fill="black"/>
<path fill-rule="evenodd" clip-rule="evenodd" d="M12.8315 12.8315C12.6484 13.0145 12.3516 13.0145 12.1685 12.8315L11.5435 12.2065C11.3605 12.0234 11.3605 11.7266 11.5435 11.5435C11.7266 11.3605 12.0234 11.3605 12.2065 11.5435L12.8315 12.1685C13.0145 12.3516 13.0145 12.6484 12.8315 12.8315Z" fill="black"/>
<path fill-rule="evenodd" clip-rule="evenodd" d="M12.8315 2.16854C12.6484 1.98549 12.3516 1.98549 12.1685 2.16854L11.5435 2.79354C11.3605 2.9766 11.3605 3.2734 11.5435 3.45646C11.7266 3.63951 12.0234 3.63951 12.2065 3.45646L12.8315 2.83146C13.0145 2.6484 13.0145 2.3516 12.8315 2.16854Z" fill="black"/>
<path fill-rule="evenodd" clip-rule="evenodd" d="M2.16854 12.8315C2.3516 13.0145 2.6484 13.0145 2.83146 12.8315L3.45646 12.2065C3.63951 12.0234 3.63951 11.7266 3.45646 11.5435C3.2734 11.3605 2.9766 11.3605 2.79354 11.5435L2.16854 12.1685C1.98549 12.3516 1.98549 12.6484 2.16854 12.8315Z" fill="black"/>
<path fill-rule="evenodd" clip-rule="evenodd" d="M2.16854 2.16854C2.3516 1.98549 2.6484 1.98549 2.83146 2.16854L3.45646 2.79354C3.63951 2.9766 3.63951 3.2734 3.45646 3.45646C3.2734 3.63951 2.9766 3.63951 2.79354 3.45646L2.16854 2.83146C1.98549 2.6484 1.98549 2.3516 2.16854 2.16854Z" fill="black"/>
<path fill-rule="evenodd" clip-rule="evenodd" d="M0.15625 7.5C0.15625 7.24112 0.366116 7.03125 0.625 7.03125L1.25 7.03125C1.50888 7.03125 1.71875 7.24112 1.71875 7.5C1.71875 7.75888 1.50888 7.96875 1.25 7.96875L0.625 7.96875C0.366116 7.96875 0.15625 7.75888 0.15625 7.5Z" fill="black"/>
</g>
<defs>
<clipPath id="clip0_914_2066">
<rect width="15" height="15" fill="white"/>
</clipPath>
</defs>
</svg>
