<svg width="25" height="26" viewBox="0 0 25 26" fill="none" xmlns="http://www.w3.org/2000/svg">
<path d="M4.16675 23.1091C4.16675 18.5067 7.89771 14.7758 12.5001 14.7758C17.1025 14.7758 20.8334 18.5067 20.8334 23.1091H18.7501C18.7501 19.6574 15.9519 16.8591 12.5001 16.8591C9.0483 16.8591 6.25008 19.6574 6.25008 23.1091H4.16675ZM12.5001 13.7341C9.04696 13.7341 6.25008 10.9373 6.25008 7.48413C6.25008 4.03101 9.04696 1.23413 12.5001 1.23413C15.9532 1.23413 18.7501 4.03101 18.7501 7.48413C18.7501 10.9373 15.9532 13.7341 12.5001 13.7341ZM12.5001 11.6508C14.8022 11.6508 16.6667 9.78621 16.6667 7.48413C16.6667 5.18205 14.8022 3.31746 12.5001 3.31746C10.198 3.31746 8.33342 5.18205 8.33342 7.48413C8.33342 9.78621 10.198 11.6508 12.5001 11.6508Z" fill="black"/>
</svg>
